<svg id="Layer_1" data-name="Layer 1" xmlns="http://www.w3.org/2000/svg" viewBox="0 0 209.05 88.33"><defs><style>.cls-1{fill:#004b8d;}.cls-2{fill:#739dd2;}</style></defs><title>Altus-Group-CMYK</title><path class="cls-1" d="M215.75,376.88h6l10.4,26.48h-5.88L224,397.29H213.25l-2.32,6.07h-5.5Zm2.92,5.31h-.07l-3.83,10.92h7.73Z" transform="translate(-205.43 -322.99)"/><rect class="cls-1" x="30.54" y="51.91" width="5.09" height="28.46"/><path class="cls-1" d="M248.83,387.54h-3.75v-3.72h3.75v-3.91l5.08-1.63v5.54h4.52v3.72h-4.52v9.1c0,1.67.46,3.22,2.39,3.22a4.58,4.58,0,0,0,2.32-.52l.15,4a13.53,13.53,0,0,1-3.76.45c-4,0-6.18-2.47-6.18-6.33Z" transform="translate(-205.43 -322.99)"/><path class="cls-1" d="M280.62,403.36H275.8V400.7h-.07a8.15,8.15,0,0,1-6.41,3.11c-4.63,0-6.64-3.26-6.64-7.66V383.82h5.08v10.43c0,2.39,0,5.61,3.3,5.61,3.68,0,4.47-4,4.47-6.48v-9.56h5.09Z" transform="translate(-205.43 -322.99)"/><path class="cls-1" d="M298.22,387.92a12.25,12.25,0,0,0-4.55-.84c-1.37,0-3,.49-3,2.16,0,3.11,8.84,1.14,8.84,8.19,0,4.56-4.06,6.38-8.2,6.38a22.9,22.9,0,0,1-5.76-.83l.3-4.18a11.18,11.18,0,0,0,5,1.3c1.29,0,3.34-.5,3.34-2.4,0-3.83-8.84-1.21-8.84-8.26,0-4.22,3.68-6.07,7.66-6.07a22.89,22.89,0,0,1,5.54.72Z" transform="translate(-205.43 -322.99)"/><path class="cls-2" d="M327.62,382a17.3,17.3,0,0,0-6.83-1.41c-6.18,0-9.59,4.18-9.59,9.6s3.34,9.45,9,9.45a14.79,14.79,0,0,0,3.5-.38v-6.91h-5.62v-4.17h10.7v14.27a33.81,33.81,0,0,1-8.58,1.36c-8.57,0-14.52-4.29-14.52-13.24s5.54-14.15,14.52-14.15a26.19,26.19,0,0,1,7.78,1.1Z" transform="translate(-205.43 -322.99)"/><path class="cls-2" d="M334.56,383.82h4.5v4.44h.09c.23-1.82,2.32-4.89,5.35-4.89a6.12,6.12,0,0,1,1.56.14v5.13a5.18,5.18,0,0,0-2.28-.42c-4.14,0-4.14,5.16-4.14,8v7.17h-5.08Z" transform="translate(-205.43 -322.99)"/><path class="cls-2" d="M358.33,383.37c5.8,0,10.24,3.9,10.24,10.35,0,5.62-3.75,10.09-10.24,10.09s-10.2-4.47-10.2-10.09C348.13,387.27,352.57,383.37,358.33,383.37Zm0,16.49c3.91,0,4.93-3.49,4.93-6.75,0-3-1.59-5.8-4.93-5.8s-4.9,2.88-4.9,5.8C353.43,396.34,354.46,399.86,358.33,399.86Z" transform="translate(-205.43 -322.99)"/><path class="cls-2" d="M390.27,403.36h-4.82V400.7h-.07a8.14,8.14,0,0,1-6.41,3.11c-4.63,0-6.64-3.26-6.64-7.66V383.82h5.09v10.43c0,2.39,0,5.61,3.3,5.61,3.67,0,4.48-4,4.48-6.48v-9.56h5.07Z" transform="translate(-205.43 -322.99)"/><path class="cls-2" d="M395.28,383.82h4.87v2.77h.07a6.61,6.61,0,0,1,6.07-3.22c6,0,8.19,4.77,8.19,10.16s-2.19,10.28-8.31,10.28a6.68,6.68,0,0,1-5.73-2.7h-.07v10.21h-5.09Zm5.12,9.71c0,2.77,1.11,6.33,4.49,6.33s4.28-3.64,4.28-6.33-.91-6.22-4.22-6.22S400.4,390.8,400.4,393.53Z" transform="translate(-205.43 -322.99)"/><path class="cls-1" d="M302.88,323l-5.71,5-18.06,15.84h47.52Zm23.86,20.92c-2,.1-12.06.72-19.23,2.87-11.75,3.53-12,9.39-11.7,11.54h47.35Zm-47.66-.07-6.68,5.85-9.8,8.63h33.2l-.09,0Z" transform="translate(-205.43 -322.99)"/></svg>